HIERARCHY
ROOT pelvis
{
	OFFSET 0.000000 0.000000 0.000000
	CHANNELS 6 Xposition Yposition Zposition Zrotation Xrotation Yrotation
	JOINT lfemur
	{
		OFFSET 11.446000 0.000000 0.000000
		CHANNELS 3 Zrotation Xrotation Yrotation
		JOINT ltibia
		{
			OFFSET 0.000000 -42.030400 0.000000
			CHANNELS 3 Zrotation Xrotation Yrotation
			JOINT lfoot
			{
				OFFSET 0.000000 -39.930200 0.000000
				CHANNELS 3 Zrotation Xrotation Yrotation
				JOINT ltoes
				{
					OFFSET 0.000000 0.000000 11.775800
					CHANNELS 3 Zrotation Xrotation Yrotation
					End Site
					{
					    OFFSET 0.000000 0.000000 5.000000
					}
				}
			}
		}
	}
	JOINT rfemur
	{
		OFFSET -11.446000 0.000000 0.000000
		CHANNELS 3 Zrotation Xrotation Yrotation
		JOINT rtibia
		{
			OFFSET 0.000000 -42.030400 0.000000
			CHANNELS 3 Zrotation Xrotation Yrotation
			JOINT rfoot
			{
				OFFSET 0.000000 -39.930200 0.000000
				CHANNELS 3 Zrotation Xrotation Yrotation
				JOINT rtoes
				{
					OFFSET 0.000000 0.000000 11.775800
					CHANNELS 3 Zrotation Xrotation Yrotation
					End Site
					{
					    OFFSET 0.000000 0.000000 5.000000
					}
				}
			}
		}
	}
	JOINT thorax
	{
		OFFSET 0.000000 11.255600 -5.000000
		CHANNELS 3 Zrotation Xrotation Yrotation
		JOINT head
		{
			OFFSET 0.000000 43.799300 0.000000
			CHANNELS 3 Zrotation Xrotation Yrotation
			End Site
			{
			    OFFSET 0.000000 5.000000 0.000000
			}
		}
		JOINT lclavicle
		{
			OFFSET 0.000000 39.863000 0.000000
			CHANNELS 3 Zrotation Xrotation Yrotation
			JOINT lhumerus
			{
				OFFSET 17.380600 4.958300 0.000000
				CHANNELS 3 Zrotation Xrotation Yrotation
				JOINT lradius
				{
					OFFSET 0.000000 -27.561300 0.000000
					CHANNELS 3 Zrotation Xrotation Yrotation
					JOINT lhand
					{
						OFFSET 0.000000 -26.933000 0.000000
						CHANNELS 3 Zrotation Xrotation Yrotation
						End Site
						{
						    OFFSET 0.000000 -5.000000 0.000000
						}
					}
				}
			}
		}
		JOINT rclavicle
		{
			OFFSET 0.000000 39.863000 0.000000
			CHANNELS 3 Zrotation Xrotation Yrotation
			JOINT rhumerus
			{
				OFFSET -17.380600 4.958300 0.000000
				CHANNELS 3 Zrotation Xrotation Yrotation
				JOINT rradius
				{
					OFFSET 0.000000 -27.561300 0.000000
					CHANNELS 3 Zrotation Xrotation Yrotation
					JOINT rhand
					{
						OFFSET 0.000000 -26.933000 0.000000
						CHANNELS 3 Zrotation Xrotation Yrotation
						End Site
						{
						    OFFSET 0.000000 -5.000000 0.000000
						}
					}
				}
			}
		}
	}
}
MOTION
Frames:	20
Frame Time:	0.0333333
8.19235 87.4297 -101.078 0.196591 2.21069 -0.795592 -1.9859 -7.99387 -2.92705 0.0751364 22.0396 -0.288377 1.15151 -2.90169 4.8841 -9.93923e-017 -5 -0 0.391869 -8.43345 3.74171 -0.0799332 23.9897 0.143903 -1.25336 -3.53886 -9.45276 -6.95656e-017 -5 -7.98176e-016 1.27238 7.29699 -0.267467 3.39538 -17.2468 -7.51976 5.46658e-016 0 -1.98785e-016 10.2895 -0.80891 -11.1907 12.4838 -19.3201 4.94739 -0.274785 -2.08127 -14.9852 5.46658e-016 0 -1.98785e-016 -8.61314 -1.34594 8.61266 -16.5678 -24.4757 -7.25034 0.0920578 -1.20611 8.61762 
8.09883 87.5167 -101.146 -0.324719 2.38946 -0.810204 -1.41267 -8.06053 -3.30217 0.072414 21.8172 -0.28205 1.14356 -2.77305 5.15276 -3.72721e-017 -5 -0 1.05632 -8.05832 4.27165 -0.0706025 22.7695 0.130182 -1.15871 -2.80419 -9.83445 -3.97569e-016 -5 -0 1.73352 6.49244 -0.1908 3.54103 -16.1374 -7.61108 0 0 -1.98785e-016 10.9376 -1.08861 -11.6754 13.0604 -20.0858 5.25588 -0.23235 -1.9151 -13.7647 0 0 -1.98785e-016 -8.79141 -1.65675 9.28546 -16.99 -24.9734 -7.50323 0.0802208 -1.1247 8.03249 
8.12277 87.5673 -101.119 -0.252536 2.16576 -1.01773 -1.44166 -7.43089 -2.91989 0.067561 21.1617 -0.27539 1.12615 -2.58642 4.98049 -1.53436e-016 -5 -4.9886e-017 0.825912 -7.59806 3.93541 -0.0677976 22.2338 0.130301 -1.12359 -2.62374 -9.19248 5.96534e-017 -5 -1.59635e-015 1.57381 6.23251 -0.244564 3.49091 -15.7136 -7.48274 1.2424e-016 -1.59028e-015 5.96354e-016 11.4875 -1.57802 -11.9941 13.5968 -20.7867 5.54781 -0.20344 -1.79283 -12.8704 1.2424e-016 -1.59028e-015 5.96354e-016 -8.88208 -2.23958 10.8533 -17.5574 -25.6317 -7.84698 0.0651713 -1.01206 7.22418 
8.06502 87.6209 -101.201 -0.383312 2.08257 -0.858167 -1.18577 -7.26388 -2.63791 0.0652641 20.8597 -0.271481 1.09747 -2.38478 4.463 1.32936e-016 -5 9.9772e-017 0.925717 -7.26078 3.72179 -0.0622226 21.68 0.131388 -1.08718 -2.31034 -9.08947 6.95656e-017 -5 7.98176e-016 1.58582 6.01712 -0.449502 3.69012 -15.4716 -7.57641 -3.72721e-016 0 1.98785e-016 11.9164 -2.19981 -12.7092 13.9574 -21.2516 5.74687 -0.105301 -1.29056 -9.22532 -3.72721e-016 0 1.98785e-016 -8.78523 -2.58107 12.1757 -18.5633 -26.7705 -8.46758 0.0588585 -0.961282 6.85961 
8.09783 87.6656 -101.355 -0.213981 2.23206 -0.321444 -1.3382 -7.30079 -2.80949 0.0629871 20.3719 -0.270126 1.07329 -2.12714 3.97329 -4.96962e-017 -5 -0 0.710781 -7.40107 3.33774 -0.0603569 21.639 0.133524 -1.06873 -2.2799 -9.1479 3.28004e-016 -5 -7.98176e-016 1.26106 5.5633 -0.784974 3.78946 -15.022 -8.00508 -1.49089e-016 -1.59028e-015 -1.98785e-016 12.4074 -2.58755 -14.3048 15.3987 -23.0624 6.56368 -0.0741876 -1.08092 -7.71796 -1.49089e-016 -1.59028e-015 -1.98785e-016 -8.60986 -2.59107 13.4643 -19.8309 -28.154 -9.26873 0.0397577 -0.786734 5.61056 
8.04546 87.7043 -101.359 -0.236098 2.12816 -0.665159 -1.28351 -7.04697 -2.74715 0.0615102 20.0523 -0.269138 1.07039 -1.97441 4.3818 -1.82013e-016 -5 4.9886e-017 0.810872 -7.2344 3.74058 -0.0580116 21.4021 0.135658 -1.04979 -2.07381 -9.21085 -1.29219e-016 -5 7.98176e-016 1.15597 5.29168 -0.557785 3.65048 -14.5333 -8.06336 -4.96962e-017 0 1.98785e-016 12.5841 -2.9638 -14.9153 17.0677 -25.063 7.54973 -0.0819304 -1.13606 -8.11481 -4.96962e-017 0 1.98785e-016 -8.48735 -2.9433 14.4253 -20.5749 -28.9398 -9.7484 0.029714 -0.677828 4.83176 
8.01083 87.7156 -101.322 -0.341207 2.00644 -0.916562 -1.17764 -7.0031 -2.71109 0.0628094 20.298 -0.269173 1.07861 -2.07308 4.56905 1.49708e-016 -5 1.49658e-016 0.937488 -6.96475 3.9131 -0.0554794 21.0097 0.137433 -1.02751 -1.88344 -9.15838 3.28004e-016 -5 -7.98176e-016 1.29894 5.14543 -0.361765 3.31836 -14.3189 -8.11286 9.93923e-017 -2.38542e-015 5.96354e-016 12.4518 -3.43566 -14.9185 17.8362 -25.9501 8.01745 -0.0937752 -1.21711 -8.69753 9.93923e-017 -2.38542e-015 5.96354e-016 -8.45084 -3.05475 15.0084 -21.2313 -29.6172 -10.1771 0.0250087 -0.619177 4.41335 
7.8843 87.7 -101.274 -0.566913 1.60307 -1.16826 -0.90667 -6.5952 -2.85551 0.0641238 20.556 -0.269273 1.09439 -2.2406 4.98051 -2.82025e-016 -5 -9.9772e-017 1.26576 -6.36189 4.28207 -0.0538877 20.6802 0.139662 -1.01822 -1.75074 -9.26651 6.95656e-017 -5 7.98176e-016 1.45723 5.45758 -0.281984 3.43811 -14.3365 -7.81158 3.23025e-016 0 5.96354e-016 12.4065 -3.74632 -15.5364 18.4215 -26.6113 8.37915 -0.0682184 -1.03635 -7.39827 3.23025e-016 0 5.96354e-016 -8.32746 -3.18656 15.6959 -21.8571 -30.2494 -10.5906 0.0161052 -0.561203 3.99916 
7.81568 87.7651 -101.167 -0.63896 1.47557 -1.38376 -0.807308 -6.47815 -2.61459 0.0648625 20.7071 -0.269219 1.10126 -2.32282 4.99685 -3.60917e-016 -5 -1.49658e-016 1.31325 -5.87549 4.19732 -0.0518796 20.155 0.139131 -0.998424 -1.49337 -8.92591 -5.26788e-016 -5 7.98176e-016 1.48058 5.36014 -0.0784786 3.49856 -14.2504 -7.58466 -2.48481e-016 -2.38542e-015 1.98785e-016 12.5625 -4.05474 -14.6448 18.762 -26.9904 8.59161 -0.225699 -1.88707 -13.5618 -2.48481e-016 -2.38542e-015 1.98785e-016 -8.18521 -3.17341 16.0038 -22.1473 -30.5381 -10.7839 0.0161468 -0.567786 4.04653 
7.81269 87.7429 -101.093 -0.567886 1.25718 -1.48616 -0.883288 -6.13175 -2.71568 0.064295 20.6041 -0.268742 1.11531 -2.39082 5.18477 3.35438e-017 -5 9.9772e-017 1.14914 -5.65115 3.76234 -0.051628 20.0437 0.138895 -1.00396 -1.55077 -8.51002 7.25573e-016 -5 -7.98176e-016 1.42974 5.59872 0.0672896 3.40503 -14.2493 -7.60793 2.23633e-016 1.59028e-015 -0 12.4413 -4.76511 -19.678 19.86 -28.184 9.28725 -0.0238937 -0.604839 -4.31093 2.23633e-016 1.59028e-015 -0 -8.15138 -3.38268 16.1487 -22.1123 -30.5033 -10.7604 0.0189082 -0.595016 4.24029 
7.74837 87.7573 -100.948 -0.673092 1.01761 -1.36282 -0.744913 -5.9544 -2.50813 0.0645054 20.6607 -0.268565 1.10027 -2.30394 4.9959 -1.57784e-016 -5 -9.9772e-017 1.2326 -5.08648 3.69748 -0.0507212 19.6261 0.138352 -0.993986 -1.45538 -8.44483 2.58438e-016 -5 -1.59635e-015 1.60869 5.83184 -0.224961 3.41719 -14.3697 -7.37669 -7.45443e-017 0 1.98785e-016 12.3043 -4.9025 -20.7437 19.9379 -28.267 9.33707 -0.0621439 -0.988664 -7.05625 -7.45443e-017 0 1.98785e-016 -8.11731 -3.63697 15.9918 -21.7466 -30.1388 -10.5173 0.0239951 -0.636175 4.5338 
7.74982 87.7337 -100.9 -0.57172 1.02071 -1.35712 -0.831752 -5.66823 -2.72108 0.0637317 20.5235 -0.268059 1.12133 -2.51107 5.0499 -3.35438e-017 -5 -9.9772e-017 1.11834 -5.1125 3.56548 -0.0512934 19.7398 0.138273 -1.01438 -1.62276 -8.40819 -1.39131e-016 -5 -1.59635e-015 1.49334 5.60874 -0.312524 3.65227 -14.4998 -6.99215 -3.47873e-016 -7.95139e-016 -1.98785e-016 12.2006 -4.97229 -22.0814 19.7678 -28.0851 9.22812 -0.0683317 -1.03666 -7.40068 -3.47873e-016 -7.95139e-016 -1.98785e-016 -7.91289 -3.31264 15.5155 -21.5654 -29.9566 -10.3974 0.0297018 -0.677259 4.82833 
7.71811 87.7455 -100.754 -0.54405 0.960799 -1.17166 -0.853677 -5.61976 -2.62848 0.0634168 20.4793 -0.267723 1.1047 -2.38503 4.90707 -1.82013e-016 -5 4.9886e-017 1.105 -4.82523 3.58255 -0.0513438 19.6132 0.138026 -1.02005 -1.68667 -8.50605 -7.95139e-016 -5 -0 1.50281 5.38176 -0.594525 3.37332 -13.951 -7.35552 1.49089e-016 0 -3.97569e-016 12.0318 -4.59776 -23.0319 19.6842 -27.9954 9.17477 -0.0864678 -1.16793 -8.34398 1.49089e-016 0 -3.97569e-016 -7.71227 -3.00426 14.8179 -21.0496 -29.4313 -10.0581 0.0392194 -0.736654 5.25202 
7.62826 87.7468 -100.723 -0.737857 1.13281 -0.71534 -0.594405 -5.94135 -2.92537 0.0648984 20.796 -0.26802 1.11327 -2.55859 4.76203 2.11828e-016 -5 1.49658e-016 1.48487 -4.78028 3.93455 -0.051283 19.4129 0.137801 -1.01175 -1.5959 -9.32367 2.58438e-016 -5 -1.59635e-015 1.70476 5.11405 -0.888897 3.48955 -14.0833 -7.53647 -4.96962e-017 7.95139e-016 -1.98785e-016 11.9548 -4.51398 -23.7679 19.4138 -27.7035 9.00268 -0.128509 -1.42501 -10.1987 -4.96962e-017 7.95139e-016 -1.98785e-016 -7.52821 -2.6299 13.9381 -20.7157 -29.0866 -9.84002 0.0420298 -0.757403 5.40101 
7.57868 87.7613 -100.771 -0.81922 1.42427 -0.779641 -0.494891 -6.4027 -2.85362 0.0655395 20.9456 -0.268018 1.11359 -2.56926 4.76957 2.60905e-016 -5 -0 1.61315 -5.17068 4.06597 -0.0518731 19.3818 0.138329 -0.9873 -1.42025 -9.32115 -3.97569e-016 -5 -0 1.86208 4.90423 -0.722192 3.35258 -14.3394 -7.7399 9.93923e-017 7.95139e-016 -1.98785e-016 11.651 -4.50019 -23.883 18.9499 -27.197 8.70957 -0.145642 -1.51719 -10.8664 9.93923e-017 7.95139e-016 -1.98785e-016 -7.42128 -2.46071 12.8659 -20.1671 -28.5117 -9.48472 0.0437583 -0.771652 5.50249 
7.57471 87.7168 -100.501 -0.745233 1.24942 -1.58948 -0.624754 -5.5629 -2.87451 0.0632756 20.5147 -0.266974 1.15195 -2.76545 5.60484 1.4536e-016 -5 9.9772e-017 1.48897 -5.06212 4.36933 -0.0554165 19.7142 0.145201 -1.02521 -1.69767 -8.82091 5.26788e-016 -5 -7.98176e-016 1.93584 4.69613 -0.317259 3.20694 -13.9013 -7.33144 1.49089e-016 -7.95139e-016 -0 11.1359 -3.64287 -23.5594 18.688 -26.9077 8.54544 -0.144775 -1.51323 -10.837 1.49089e-016 -7.95139e-016 -0 -7.57711 -1.78357 12.5335 -19.8713 -28.1975 -9.29476 0.0354956 -0.731693 5.21662 
7.4946 87.6963 -100.33 -0.667369 1.00453 -1.05116 -0.609643 -5.35653 -3.00767 0.06331 20.5454 -0.266725 1.14824 -2.79686 5.26129 1.82632e-016 -5 9.9772e-017 1.60363 -4.58205 4.58368 -0.0493535 19.7685 0.125647 -1.05221 -1.95205 -9.54689 -3.97569e-016 -5 -0 1.73452 4.83827 -0.832531 3.6185 -13.9237 -7.06569 -3.97569e-016 7.95139e-016 3.97569e-016 11.285 -3.37889 -23.9705 18.2748 -26.446 8.28797 -0.15083 -1.54444 -11.0634 -3.97569e-016 7.95139e-016 3.97569e-016 -7.36838 -1.57217 11.364 -19.32 -27.6034 -8.94342 0.0338488 -0.724246 5.16302 
7.49265 87.7005 -100.205 -0.53151 1.09511 -1.0772 -0.733901 -5.25332 -3.06313 0.0622731 20.3615 -0.266076 1.14247 -2.71799 5.26836 2.27361e-016 -5 -9.9772e-017 1.44641 -4.57377 4.53478 -0.05376 19.7806 0.137588 -1.08 -2.08415 -9.46457 -0 -5 -0 1.6247 4.65486 -0.754101 3.51857 -13.8755 -7.12694 -2.48481e-017 1.59028e-015 -3.97569e-016 11.1984 -3.01244 -24.2878 17.4951 -25.5584 7.80898 -0.144321 -1.51045 -10.8173 -2.48481e-017 1.59028e-015 -3.97569e-016 -7.45232 -1.26107 10.7504 -18.791 -27.0236 -8.61011 0.0335556 -0.720036 5.13395 
7.45054 87.7369 -100.088 -0.670907 1.12493 -1.25244 -0.600719 -5.08733 -3.13136 0.0614956 20.2305 -0.265488 1.14629 -2.70295 5.45675 2.36676e-016 -5 1.49658e-016 1.58499 -4.46606 4.45979 -0.0589793 19.5898 0.153762 -1.06771 -1.88496 -9.30071 1.98785e-016 -5 -0 1.94157 4.68168 -0.905969 3.26867 -14.174 -7.18003 -9.93923e-017 0 3.97569e-016 10.9048 -2.68297 -23.7365 16.8841 -24.8473 7.43943 -0.171826 -1.64858 -11.8193 -9.93923e-017 0 3.97569e-016 -7.6859 -1.31628 9.92942 -18.1086 -26.2604 -8.18547 0.0468903 -0.856136 6.10611 
7.4664 87.7021 -99.9925 -0.325928 1.13295 -1.20214 -0.991165 -4.99012 -3.09146 0.0604746 19.9911 -0.263842 1.14277 -2.56059 5.53936 -2.65872e-016 -5 -1.99544e-016 1.20823 -4.65766 4.18419 -0.0546292 20.0715 0.137301 -1.10263 -2.29837 -9.07653 5.26788e-016 -5 -7.98176e-016 1.54117 4.69609 -1.11867 3.42646 -13.9922 -7.15871 4.96962e-017 -7.95139e-016 -3.97569e-016 10.9232 -2.22726 -23.5945 16.4346 -24.3156 7.17096 -0.184575 -1.70764 -12.2499 4.96962e-017 -7.95139e-016 -3.97569e-016 -7.67508 -1.2086 9.5433 -17.658 -25.7474 -7.90844 0.0493083 -0.878343 6.26531 
